<svg xmlns="http://www.w3.org/2000/svg" width="48" height="48" id="money"><g fill="#30375C" transform="translate(8 -1013.362)"><circle cx="16" cy="1037.362" r="24" fill="#F7C316"></circle><path fill="#E0A406" fill-rule="evenodd" style="line-height:normal;text-indent:0;text-align:start;text-decoration-line:none;text-decoration-style:solid;text-decoration-color:#000;text-transform:none;block-progression:tb;isolation:auto;mix-blend-mode:normal" d="M27.922 47.67a24 24 0 0 0 .158-.02 24 24 0 0 0 2.34-.525 24 24 0 0 0 2.277-.756 24 24 0 0 0 2.19-.98 24 24 0 0 0 2.08-1.194 24 24 0 0 0 1.951-1.394 24 24 0 0 0 1.803-1.584 24 24 0 0 0 1.634-1.756 24 24 0 0 0 1.454-1.91 24 24 0 0 0 1.254-2.045 24 24 0 0 0 1.042-2.16 24 24 0 0 0 .823-2.254 24 24 0 0 0 .593-2.324 24 24 0 0 0 .036-.235l-13.573-13.57a.5.5 0 0 0 0-.707L32.7 12.969a.5.5 0 0 0-.707 0l-.33.33-.799-.799a.5.5 0 0 0-.5-.5h-1.818a.5.5 0 0 0-.5.5v.691a4.578 4.578 0 0 0-.645.264l-.486-.486a.5.5 0 0 0-.707 0l-1.285 1.287a.5.5 0 0 0 0 .707l.486.486a4.567 4.567 0 0 0-.265.643h-.69a.5.5 0 0 0-.5.5v1.818a.5.5 0 0 0 .5.5l.799.799-.33.33a.5.5 0 0 0-.076.104l-6.635-6.635-.002-.002A1.701 1.701 0 0 0 16.967 13v.006a.5.5 0 0 0-.36.16c-.743.197-1.341.783-1.334 1.582l-.002-.002v.736C12.875 16.16 11 18.152 11 20.7c0 .188.01.373.03.555.006.067.02.131.03.197.018.12.037.242.063.36.012.054.03.107.043.162.03.117.06.235.098.35.025.075.055.15.084.224a5.171 5.171 0 0 0 .615 1.144c.167.237.352.46.555.668.02.02.034.045.054.065l5.678 5.678a2.948 2.948 0 0 1-.998.246l-3.293-3.293-.057-.055c-.333-.3-.76-.438-1.18-.438-.42 0-.847.138-1.181.438-.333.3-.548.769-.541 1.307 0 .306.031.6.082.886.005.028.008.057.014.084.052.267.129.522.22.77.017.046.033.092.051.137.052.127.12.245.182.367.086.171.175.34.28.5.072.111.152.216.233.322.11.142.222.28.344.41.042.045.074.097.117.14l2.813 2.813c.02.082.043.165.074.24.018.044.042.082.063.124.032.063.062.126.101.183.027.04.06.073.09.11.031.038.06.08.094.115l.056.054L27.922 47.67zm-1.008-25.637 4.283 4.283a.5.5 0 0 0 .23.291l.143.082.01.01-.152-.088.398.399c-.005.033-.008.067-.012.101l-5-5a.5.5 0 0 0 .1-.078z" color="#000" font-family="sans-serif" font-weight="400" transform="translate(-8 1013.362)"></path><path fill-rule="evenodd" style="line-height:normal;text-indent:0;text-align:start;text-decoration-line:none;text-decoration-style:solid;text-decoration-color:#30375C;text-transform:none;block-progression:tb;isolation:auto;mix-blend-mode:normal" d="M18.488 4a.5.5 0 0 0-.5.5v.691a4.578 4.578 0 0 0-.644.264l-.487-.486a.5.5 0 0 0-.707 0l-1.285 1.287a.5.5 0 0 0 0 .707l.487.486a4.567 4.567 0 0 0-.266.643h-.69a.5.5 0 0 0-.5.5v1.818a.5.5 0 0 0 .5.5h.69c.072.222.16.436.266.645l-.487.484a.5.5 0 0 0 0 .707l1.285 1.287a.5.5 0 0 0 .707 0l.489-.488c.208.105.42.195.642.267v.688a.5.5 0 0 0 .5.5h1.819a.5.5 0 0 0 .5-.5v-.69c.22-.071.434-.159.642-.263l.487.486a.5.5 0 0 0 .707 0l1.285-1.287a.5.5 0 0 0 0-.707l-.487-.486c.106-.208.196-.421.268-.643h.687a.5.5 0 0 0 .5-.5V8.592a.5.5 0 0 0-.5-.5h-.689a4.569 4.569 0 0 0-.264-.645l.485-.484a.5.5 0 0 0 0-.707l-1.285-1.287a.5.5 0 0 0-.707 0l-.487.488a4.557 4.557 0 0 0-.642-.268V4.5a.5.5 0 0 0-.5-.5h-1.819zM6.91 4.996v.006a.5.5 0 0 0-.36.16c-.746.198-1.346.788-1.333 1.592l-.002-.012v.737C2.818 8.155.943 10.147.943 12.695c0 3.14 2.797 5.52 5.995 5.52 1.558 0 2.55 1.022 2.55 2.078 0 1.057-.991 2.072-2.55 2.072-1.56 0-2.551-1.015-2.551-2.072.004-.534-.21-1-.541-1.297-.334-.3-.76-.437-1.18-.437-.42 0-.848.137-1.182.437-.333.3-.548.769-.54 1.307.002 2.607 1.916 4.524 4.27 5.213v.744l.003-.01c-.008.539.207 1.009.54 1.309.334.3.76.437 1.18.437.42 0 .848-.138 1.182-.437.334-.3.549-.77.541-1.309v-.742c2.398-.676 4.274-2.667 4.274-5.215 0-3.14-2.8-5.522-5.997-5.522-1.558 0-2.55-1.02-2.55-2.076 0-1.042.969-2.036 2.494-2.064H7c1.523.03 2.488 1.018 2.488 2.058-.005.535.21 1.001.541 1.3.334.3.762.437 1.182.437.42 0 .848-.138 1.182-.438.333-.299.545-.769.539-1.306-.003-2.608-1.916-4.527-4.272-5.215v-.723a1.73 1.73 0 0 0-1.75-1.748zM18.988 5h.819v.516a.5.5 0 0 0 .388.488c.394.09.77.244 1.112.459a.5.5 0 0 0 .619-.068l.363-.366.578.58-.361.362a.5.5 0 0 0-.07.617c.213.343.368.72.457 1.113a.5.5 0 0 0 .486.39h.517v.82h-.515a.5.5 0 0 0-.486.388c-.09.393-.247.77-.461 1.111a.5.5 0 0 0 .07.62l.363.363-.578.578-.361-.362a.5.5 0 0 0-.62-.07 3.582 3.582 0 0 1-1.11.457.5.5 0 0 0-.391.488V14h-.819v-.516a.5.5 0 0 0-.388-.486 3.6 3.6 0 0 1-1.112-.46.5.5 0 0 0-.619.07l-.365.365-.578-.58.363-.362a.5.5 0 0 0 .07-.619 3.583 3.583 0 0 1-.457-1.111.5.5 0 0 0-.488-.39h-.518v-.82h.516a.5.5 0 0 0 .488-.388c.09-.394.245-.77.46-1.111a.5.5 0 0 0-.069-.62l-.365-.363.578-.58.363.364a.5.5 0 0 0 .617.068c.343-.214.72-.367 1.114-.455a.5.5 0 0 0 .39-.49V5ZM6.926 6.006a.5.5 0 0 0 .006 0c.41 0 .735.318.728.728a.5.5 0 0 0 0 .01v1.069a.5.5 0 0 0 .39.488c2.172.488 3.884 2.144 3.884 4.394a.5.5 0 0 0 0 .01c.004.288-.085.436-.211.549a.776.776 0 0 1-.512.182.78.78 0 0 1-.514-.182c-.126-.113-.213-.261-.209-.549a.5.5 0 0 0 0-.01c0-1.652-1.505-3.02-3.468-3.058a.5.5 0 0 0-.04 0H6.9a.5.5 0 0 0-.039 0c-1.968.036-3.474 1.41-3.474 3.064 0 1.675 1.54 3.076 3.55 3.076 2.705 0 4.997 1.98 4.997 4.522 0 2.182-1.682 3.925-3.877 4.387a.5.5 0 0 0-.397.49v1.088a.5.5 0 0 0 0 .01c.004.287-.083.435-.209.548a.782.782 0 0 1-.513.182.775.775 0 0 1-.512-.182c-.126-.113-.215-.261-.211-.549a.5.5 0 0 0 0-.01V25.18a.5.5 0 0 0-.389-.487c-2.17-.488-3.883-2.144-3.883-4.394a.5.5 0 0 0 0-.01c-.004-.287.083-.437.21-.55a.782.782 0 0 1 .513-.182c.197 0 .386.068.512.181.126.114.213.264.209.551a.5.5 0 0 0 0 .01c0 1.675 1.54 3.072 3.55 3.072s3.551-1.397 3.551-3.072-1.54-3.078-3.55-3.078c-2.705 0-4.995-1.977-4.995-4.52 0-2.182 1.68-3.927 3.875-4.389a.5.5 0 0 0 .397-.49V6.748a.5.5 0 0 0 0-.01.714.714 0 0 1 .71-.732zm12.47 1.605A1.897 1.897 0 0 0 17.508 9.5c0 1.036.852 1.89 1.888 1.89a1.899 1.899 0 0 0 1.89-1.89 1.897 1.897 0 0 0-1.89-1.889zm0 1a.89.89 0 1 1 0 1.779.89.89 0 0 1 0-1.779zM13.607 14a2.542 2.542 0 0 1-.548.738 2.194 2.194 0 0 1-.364.262h.883v.82a.5.5 0 0 0 .389.489c.528.12 1.033.329 1.492.617a.5.5 0 0 0 .62-.07l.577-.579.965.963-.576.578a.5.5 0 0 0-.072.618c.286.46.494.965.613 1.494a.5.5 0 0 0 .488.388h.822v1.366h-.82a.5.5 0 0 0-.488.388 4.81 4.81 0 0 1-.615 1.49.5.5 0 0 0 .068.62l.58.58-.965.963-.576-.577a.5.5 0 0 0-.62-.07c-.459.287-.963.495-1.491.613a.5.5 0 0 0-.39.487V27h-1.364v-.82a.5.5 0 0 0-.389-.487 4.849 4.849 0 0 1-.812-.267 7.668 7.668 0 0 1-1.354.726v.09c.002.14-.02.275-.037.41l.568-.568c.328.174.67.315 1.024.424v.992a.5.5 0 0 0 .5.5h2.363a.5.5 0 0 0 .5-.5v-.994a5.793 5.793 0 0 0 1.026-.42l.699.7a.5.5 0 0 0 .707 0l1.672-1.67a.5.5 0 0 0 0-.708l-.703-.703c.173-.327.315-.667.423-1.021h.994a.5.5 0 0 0 .5-.5v-2.366a.5.5 0 0 0-.5-.5h-.994a5.79 5.79 0 0 0-.42-1.023l.7-.701a.5.5 0 0 0 0-.707l-1.672-1.67a.5.5 0 0 0-.707 0l-.701.701a5.792 5.792 0 0 0-1.024-.424V14.5a.5.5 0 0 0-.5-.5h-.47zm11.514 1a.5.5 0 0 0-.135.018l-1.404.377a.5.5 0 0 0-.353.61l.125.47c-.118.08-.23.165-.336.257l-.42-.242a.5.5 0 0 0-.682.182l-.729 1.26a.5.5 0 0 0 .184.683l.42.242a3.757 3.757 0 0 0-.055.42l-.468.125a.5.5 0 0 0-.354.612l.377 1.406a.5.5 0 0 0 .611.353l.47-.125c.078.117.163.228.255.334l-.242.42a.5.5 0 0 0 .183.684l1.26.726a.5.5 0 0 0 .684-.181l.242-.422c.14.027.278.046.42.057l.125.466a.5.5 0 0 0 .611.354l1.406-.375a.5.5 0 0 0 .354-.613l-.127-.47c.116-.078.227-.165.334-.257l.422.244a.5.5 0 0 0 .683-.183l.727-1.26a.5.5 0 0 0-.184-.684l-.42-.242c.027-.139.044-.277.055-.418l.469-.125a.5.5 0 0 0 .353-.613l-.375-1.404a.5.5 0 0 0-.613-.354l-.469.125a3.742 3.742 0 0 0-.257-.334l.244-.422a.5.5 0 0 0-.184-.681l-1.26-.729a.5.5 0 0 0-.683.184l-.242.42a3.673 3.673 0 0 0-.418-.055l-.125-.469A.5.5 0 0 0 25.12 15Zm-.36 1.111v.002l.08.3a.5.5 0 0 0 .5.37c.312-.01.625.03.923.123a.5.5 0 0 0 .58-.226l.158-.272.393.227-.157.271a.5.5 0 0 0 .094.616c.229.212.42.46.566.736a.5.5 0 0 0 .57.25l.302-.08.119.437-.301.08a.5.5 0 0 0-.37.5c.011.312-.031.625-.124.922a.5.5 0 0 0 .228.582l.272.156-.229.395-.27-.156a.5.5 0 0 0-.616.092c-.212.228-.461.42-.737.566a.5.5 0 0 0-.25.57l.082.303-.44.117-.08-.299a.5.5 0 0 0-.5-.37 2.757 2.757 0 0 1-.92-.126.5.5 0 0 0-.581.229l-.158.271-.393-.226.156-.272a.5.5 0 0 0-.094-.617 2.771 2.771 0 0 1-.564-.736.5.5 0 0 0-.572-.248l-.301.08-.117-.442.299-.078a.5.5 0 0 0 .37-.5 2.77 2.77 0 0 1 .124-.92.5.5 0 0 0-.227-.582L22.305 18l.226-.395.27.157a.5.5 0 0 0 .617-.096c.212-.229.46-.419.736-.564a.5.5 0 0 0 .25-.573l-.08-.3.438-.118zm.577 1.834a1.632 1.632 0 0 0-.305.053c-.4.107-.76.365-.98.748a1.62 1.62 0 0 0 .59 2.201 1.62 1.62 0 0 0 2.2-.59 1.62 1.62 0 0 0-.59-2.2 1.598 1.598 0 0 0-.915-.212zm-11.717.496v.004c.132.393.228.802.274 1.23.402.305.667.783.667 1.325 0 .719-.463 1.327-1.103 1.56-.166.39-.368.76-.61 1.104h.047a2.679 2.679 0 0 0 2.666-2.668c0-1.211-.827-2.234-1.94-2.555zm11.902.504a.615.615 0 0 1 .456.912.612.612 0 1 1-.455-.912z" color="#30375C" font-family="sans-serif" font-weight="400" overflow="visible" transform="translate(2.057 1021.362)"></path></g></svg>