<svg xmlns="http://www.w3.org/2000/svg" enable-background="new 0 0 48 48" viewBox="0 0 48 48" id="investor" fill="#fff" ><path d="M34.6,20.5c3.2-1.7,5.4-5.1,5.6-9c0,0,0,0,0,0c0,0,0,0,0,0l0-0.1c0-0.1,0-0.2,0-0.3c0-5.9-4.8-10.6-10.6-10.6
		c-3.9,0-7.5,2.2-9.4,5.7c0,0,0,0,0,0C19.4,7.7,19,9.4,19,11.1c0,4,2.3,7.6,5.6,9.4c-2.5,0.7-4.8,2-6.8,3.8
		c-1.6-0.7-3.3-1.1-5.1-1.1C6,23.1,0.5,28.6,0.5,35.3S6,47.5,12.7,47.5c5.4,0,10.2-3.7,11.7-8.8h23.1v-1
		C47.5,29.6,42.1,22.7,34.6,20.5z M29.6,2.5c3.9,0,7.3,2.7,8.3,6.3l-2.2-2.2c-1.1-1.1-2.5-1.7-4-1.7s-2.9,0.6-4,1.7
		c-1.4,1.4-3.8,1.4-5.2,0l-0.1-0.1C23.9,4,26.6,2.5,29.6,2.5z M21,11.1c0-1,0.2-1.9,0.5-2.8c0.1,0.1,0.2,0.1,0.3,0.2
		c0.1,0.1,0.2,0.2,0.3,0.2c0.2,0.1,0.4,0.2,0.6,0.3c0.1,0,0.2,0.1,0.3,0.1c0.3,0.1,0.6,0.2,0.8,0.2c0.1,0,0.1,0,0.2,0
		c0.3,0.1,0.7,0.1,1.1,0.1c0.7,0,1.4-0.1,2.1-0.4c0,0,0,0,0,0C27.5,9.1,27.8,9,28,8.8c0.1,0,0.1-0.1,0.2-0.1
		c0.3-0.2,0.6-0.4,0.9-0.7c1.4-1.4,3.8-1.4,5.2,0l3.9,3.9c-0.4,4.4-4,7.8-8.5,7.9c0,0,0,0,0,0l-0.1,0l0,0l-0.1,0c0,0,0,0,0,0
		C24.8,19.7,21,15.8,21,11.1z M12.7,45.5c-5.6,0-10.2-4.6-10.2-10.2c0-5.6,4.6-10.2,10.2-10.2c1.7,0,3.3,0.4,4.8,1.2
		c3.3,1.8,5.4,5.2,5.4,9c0,0.7-0.1,1.5-0.2,2.2l0,0C21.6,42.1,17.5,45.5,12.7,45.5z M24.8,36.7C24.8,36.7,24.8,36.7,24.8,36.7
		c0.1-0.5,0.1-0.9,0.1-1.4c0-0.5,0-0.9-0.1-1.4c0-0.1,0-0.1,0-0.2c-0.1-0.4-0.1-0.9-0.2-1.3c0-0.1,0-0.1-0.1-0.2
		c-0.1-0.4-0.2-0.8-0.4-1.2c0-0.1-0.1-0.1-0.1-0.2c-0.2-0.4-0.3-0.8-0.5-1.2c0,0,0-0.1-0.1-0.1c-0.2-0.4-0.4-0.8-0.7-1.1
		c0,0,0,0,0-0.1c-0.3-0.4-0.5-0.7-0.8-1c0,0-0.1-0.1-0.1-0.1c-0.3-0.3-0.6-0.6-0.9-0.9c-0.1-0.1-0.1-0.1-0.2-0.2
		c-0.3-0.3-0.7-0.5-1-0.8c0,0,0,0-0.1-0.1c2.8-2.2,6.2-3.5,9.8-3.5c0,0,0,0,0,0v0l0,0c0,0,0.1,0,0.1,0l0.1,0
		c8.4,0.1,15.2,6.7,15.7,14.9H24.8z"></path><path d="M14.5,29.4h-0.8v-1.7h-2v1.7h-0.8c-1.4,0-2.6,1.2-2.6,2.6v1.7c0,1.4,1.2,2.6,2.6,2.6h3.7c0.3,0,0.6,0.3,0.6,0.6v1.7
		c0,0.3-0.3,0.6-0.6,0.6h-3.7c-0.3,0-0.6-0.3-0.6-0.6v-0.9h-2v0.9c0,1.4,1.2,2.6,2.6,2.6h0.8v1.7h2v-1.7h0.8c1.4,0,2.6-1.2,2.6-2.6
		v-1.7c0-1.4-1.2-2.6-2.6-2.6h-3.7c-0.3,0-0.6-0.3-0.6-0.6V32c0-0.3,0.3-0.6,0.6-0.6h3.7c0.3,0,0.6,0.3,0.6,0.6v0.9h2V32
		C17.1,30.5,16,29.4,14.5,29.4z"></path></svg>