<svg xmlns="http://www.w3.org/2000/svg" enable-background="new 0 0 512 512" viewBox="0 0 512 512" id="stock-quotes"><path fill="#fff" d="M66.659 291.823v198.569c0 4.996-4.05 9.046-9.046 9.046H21.608c-4.996 0-9.046-4.05-9.046-9.046V291.823c0-4.996 4.05-9.046 9.046-9.046h36.005C62.609 282.777 66.659 286.827 66.659 291.823zM283.049 291.823v198.569c0 4.996-4.05 9.046-9.046 9.046h-36.005c-4.996 0-9.046-4.05-9.046-9.046V291.823c0-4.996 4.05-9.046 9.046-9.046h36.005C278.999 282.777 283.049 286.827 283.049 291.823zM499.439 233.954v256.438c0 4.996-4.05 9.046-9.046 9.046h-36.005c-4.996 0-9.046-4.05-9.046-9.046V233.954c0-4.996 4.05-9.046 9.046-9.046h36.005C495.388 224.908 499.439 228.958 499.439 233.954z"></path><path fill="#30375C" d="M174.854 351.776v138.616c0 4.996-4.05 9.046-9.046 9.046h-36.005c-4.996 0-9.046-4.05-9.046-9.046V351.776c0-4.996 4.05-9.046 9.046-9.046h36.005C170.804 342.73 174.854 346.78 174.854 351.776zM391.244 325.26v165.132c0 4.996-4.05 9.046-9.046 9.046h-36.005c-4.996 0-9.046-4.05-9.046-9.046V325.26c0-4.996 4.05-9.046 9.046-9.046h36.005C387.193 316.213 391.244 320.264 391.244 325.26z"></path><path fill="#fff" d="M244.678,99.274c0,47.925-38.877,86.713-86.803,86.713c-47.835,0-86.713-38.788-86.713-86.713
			c0-47.925,38.878-86.713,86.713-86.713C205.801,12.562,244.678,51.349,244.678,99.274z"></path><path fill="#fff" d="M57.616 274.927H21.611c-9.318 0-16.902 7.577-16.902 16.894v198.568c0 9.318 7.584 16.902 16.902 16.902h36.005c9.318 0 16.894-7.584 16.894-16.902V291.821C74.51 282.503 66.933 274.927 57.616 274.927zM58.804 490.389c0 .66-.537 1.196-1.189 1.196H21.611c-.66 0-1.196-.537-1.196-1.196V291.821c0-.652.537-1.189 1.196-1.189h36.005c.652 0 1.189.537 1.189 1.189V490.389zM165.807 334.874h-36.005c-9.318 0-16.902 7.584-16.902 16.902v138.614c0 9.318 7.584 16.902 16.902 16.902h36.005c9.318 0 16.902-7.584 16.902-16.902V351.776C182.709 342.458 175.125 334.874 165.807 334.874zM167.004 490.389c0 .66-.537 1.196-1.196 1.196h-36.005c-.66 0-1.196-.537-1.196-1.196V351.776c0-.66.537-1.196 1.196-1.196h36.005c.66 0 1.196.537 1.196 1.196V490.389zM273.999 274.927h-35.997c-9.318 0-16.902 7.577-16.902 16.894v198.568c0 9.318 7.584 16.902 16.902 16.902h35.997c9.318 0 16.902-7.584 16.902-16.902V291.821C290.901 282.503 283.316 274.927 273.999 274.927zM275.195 490.389c0 .66-.537 1.196-1.196 1.196h-35.997c-.66 0-1.196-.537-1.196-1.196V291.821c0-.652.537-1.189 1.196-1.189h35.997c.66 0 1.196.537 1.196 1.189V490.389zM382.198 308.363h-36.005c-9.318 0-16.902 7.577-16.902 16.894v165.132c0 9.318 7.584 16.902 16.902 16.902h36.005c9.318 0 16.902-7.584 16.902-16.902V325.257C399.1 315.939 391.515 308.363 382.198 308.363zM383.394 490.389c0 .66-.537 1.196-1.196 1.196h-36.005c-.66 0-1.196-.537-1.196-1.196V325.257c0-.652.537-1.189 1.196-1.189h36.005c.66 0 1.196.537 1.196 1.189V490.389zM490.389 217.058h-36.005c-9.318 0-16.894 7.577-16.894 16.894v256.437c0 9.318 7.577 16.902 16.894 16.902h36.005c9.318 0 16.902-7.584 16.902-16.902V233.952C507.291 224.635 499.707 217.058 490.389 217.058zM491.586 490.389c0 .66-.537 1.196-1.196 1.196h-36.005c-.652 0-1.189-.537-1.189-1.196V233.952c0-.652.537-1.189 1.189-1.189h36.005c.66 0 1.196.537 1.196 1.189V490.389z"></path><path fill="#fff" d="M143.161,297.795c2.738,2.023,6.525,2.047,9.295,0l104.518-76.749l104.027,46.243
				c3.213,1.411,6.994,0.537,9.249-2.178l94.3-114.171l-0.005,23.718c0,4.333,3.512,7.853,7.853,7.853
				c4.333,0,7.853-3.512,7.853-7.853l0.008-45.53c0-4.196-3.914-8.341-8.743-7.797c-0.005,0-0.01-0.002-0.015-0.002l-45.292,5.261
				c-4.31,0.498-7.393,4.394-6.894,8.704c0.498,4.31,4.387,7.469,8.704,6.894l25.865-3.002l-91.947,111.332L259.19,204.841
				c-2.569-1.135-5.56-0.828-7.838,0.851l-103.544,76.036L44.257,205.693c-3.512-2.569-8.42-1.81-10.974,1.679
				c-2.569,3.497-1.818,8.413,1.679,10.974L143.161,297.795z"></path><path fill="#fff" d="M157.878,193.837c52.194,0,94.656-42.424,94.656-94.564S210.072,4.709,157.878,4.709
				c-52.14,0-94.564,42.424-94.564,94.564S105.737,193.837,157.878,193.837z M157.878,20.414c43.536,0,78.95,35.376,78.95,78.858`
				s-35.415,78.858-78.95,78.858c-43.482,0-78.858-35.376-78.858-78.858S114.396,20.414,157.878,20.414z"></path><path fill="#30375C" d="M159.381,125.684h-20.046c-4.341,0-7.853,3.512-7.853,7.853s3.512,7.853,7.853,7.853h10.759v4.133
				c0,4.341,3.512,7.853,7.853,7.853c4.341,0,7.853-3.512,7.853-7.853v-5.075c10.652-2.855,18.559-12.503,18.559-24.044
				c0-13.773-11.204-24.985-24.977-24.985c-0.863,0-3.705,0-2.914,0c-5.115,0-9.279-4.164-9.279-9.279
				c0-5.115,4.164-9.272,9.279-9.272h20.039c4.341,0,7.853-3.512,7.853-7.853c0-4.341-3.512-7.853-7.853-7.853H165.8V53.03
				c0-4.341-3.512-7.853-7.853-7.853c-4.341,0-7.853,3.512-7.853,7.853v5.06c-10.678,2.838-18.612,12.501-18.612,24.058
				c0,13.773,11.212,24.977,24.985,24.977h2.914c5.115,0,9.272,4.164,9.272,9.279S164.496,125.684,159.381,125.684z"></path></svg>