<svg viewBox="0 0 24 24" fill="none" xmlns="http://www.w3.org/2000/svg"><g id="SVGRepo_bgCarrier" stroke-width="0"></g><g id="SVGRepo_tracerCarrier" stroke-linecap="round" stroke-linejoin="round"></g><g id="SVGRepo_iconCarrier"> <path  d="M 12 4 V 10 M 12 10 L 10 7 M 12 10 L 14 7 M 5.8233 9.0004 C 6.2383 9.3668 6.5 9.9029 6.5 10.5 C 6.5 11.6046 5.6046 12.5 4.5 12.5 C 3.9028 12.5 3.3668 12.2383 3.0004 11.8233 M 5.8233 9.0004 C 5.9414 9 6.0668 9 6.2 9 H 8 M 5.8233 9.0004 C 4.9485 9.0031 4.469 9.0259 4.092 9.218 C 3.7157 9.4097 3.4097 9.7157 3.218 10.092 C 3.0259 10.469 3.0031 10.9485 3.0004 11.8233 M 3.0004 11.8233 C 3 11.9414 3 12.0668 3 12.2 V 17.8 C 3 17.9332 3 18.0586 3.0004 18.1767 M 3.0004 18.1767 C 3.3668 17.7617 3.9028 17.5 4.5 17.5 C 5.6046 17.5 6.5 18.3954 6.5 19.5 C 6.5 20.0971 6.2383 20.6332 5.8233 20.9996 M 3.0004 18.1767 C 3.0031 19.0515 3.0259 19.5311 3.218 19.908 C 3.4097 20.2843 3.7157 20.5903 4.092 20.782 C 4.469 20.9741 4.9485 20.9969 5.8233 20.9996 M 5.8233 20.9996 C 5.9414 21 6.0668 21 6.2 21 H 17.8 C 17.9332 21 18.0586 21 18.1767 20.9996 M 21 18.1771 C 20.6335 17.7619 20.0973 17.5 19.5 17.5 C 18.3954 17.5 17.5 18.3954 17.5 19.5 C 17.5 20.0971 17.7617 20.6332 18.1767 20.9996 M 21 18.1771 C 21.0004 18.0589 21 17.9334 21 17.8 V 12.2 C 21 12.0668 21 11.9414 20.9996 11.8233 M 21 18.1771 C 20.9973 19.0516 20.974 19.5311 20.782 19.908 C 20.5903 20.2843 20.2843 20.5903 19.908 20.782 C 19.5311 20.9741 19.0515 20.9969 18.1767 20.9996 M 20.9996 11.8233 C 20.6332 12.2383 20.0971 12.5 19.5 12.5 C 18.3954 12.5 17.5 11.6046 17.5 10.5 C 17.5 9.9029 17.7617 9.3668 18.1767 9.0004 M 20.9996 11.8233 C 20.9969 10.9485 20.9741 10.469 20.782 10.092 C 20.5903 9.7157 20.2843 9.4097 19.908 9.218 C 19.5311 9.0259 19.0515 9.0031 18.1767 9.0004 M 18.1767 9.0004 C 18.0586 9 17.9332 9 17.8 9 H 16 M 14 15 C 14 16.1046 13.1046 17 12 17 C 10.8954 17 10 16.1046 10 15 C 10 13.8954 10.8954 13 12 13 C 13.1046 13 14 13.8954 14 15 Z" stroke="#fff" stroke-width="1" stroke-linecap="round" stroke-linejoin="round"></path></g></svg>